<svg xmlns="http://www.w3.org/2000/svg">
<symbol id="building-fill-gear" viewBox="0 0 24 25">
<path fill-rule="evenodd" clip-rule="evenodd" d="M4 5.7373L11 2.2373L18 5.7373V11.7578C17.8351 11.7442 17.6684 11.7373 17.5 11.7373C16.1938 11.7373 14.9851 12.1547 14 12.8634V12.2373H12V14.2373H12.626C11.9174 15.2224 11.5 16.4311 11.5 17.7373C11.5 19.5293 12.2856 21.1379 13.5313 22.2373H10V18.2373H8V22.2373H4V5.7373ZM10 8.2373H8V10.2373H10V8.2373ZM10 12.2373H8V14.2373H10V12.2373ZM12 8.2373H14V10.2373H12V8.2373Z" fill="#EB1C25"/>
<path fill-rule="evenodd" clip-rule="evenodd" d="M16.7032 13.9276L16.5291 13.5977L16.1727 13.7076C15.5184 13.9093 14.9283 14.2558 14.4396 14.7093L14.1664 14.9629L14.3647 15.2785C14.5371 15.553 14.5547 15.9098 14.3823 16.2083C14.2099 16.507 13.8918 16.6702 13.5676 16.6579L13.1945 16.6437L13.1117 17.0079C13.0386 17.3301 13 17.665 13 18.0085C13 18.3518 13.0385 18.6866 13.1117 19.0087L13.1944 19.3729L13.5676 19.3587C13.8917 19.3464 14.2099 19.5096 14.3823 19.8083C14.5547 20.1069 14.5371 20.4637 14.3646 20.7382L14.1662 21.0539L14.4395 21.3075C14.9282 21.761 15.5183 22.1077 16.1727 22.3094L16.5291 22.4193L16.7032 22.0894C16.8546 21.8024 17.155 21.6085 17.5 21.6085C17.845 21.6085 18.1454 21.8024 18.2968 22.0894L18.4709 22.4193L18.8273 22.3094C19.4817 22.1077 20.0718 21.761 20.5605 21.3075L20.8338 21.0539L20.6354 20.7382C20.463 20.4637 20.4453 20.1068 20.6177 19.8083C20.7902 19.5096 21.1083 19.3464 21.4324 19.3587L21.8056 19.3729L21.8883 19.0087C21.9615 18.6866 22 18.3517 22 18.0085C22 17.665 21.9614 17.3301 21.8883 17.0079L21.8055 16.6437L21.4324 16.6579C21.1083 16.6702 20.7902 16.507 20.6177 16.2083C20.4454 15.9098 20.463 15.553 20.6353 15.2785L20.8336 14.9629L20.5604 14.7093C20.0717 14.2559 19.4816 13.9093 18.8273 13.7076L18.4709 13.5977L18.2968 13.9276C18.1454 14.2145 17.845 14.4085 17.5 14.4085C17.155 14.4085 16.8546 14.2145 16.7032 13.9276ZM17.5 19.8081C18.4941 19.8081 19.3 19.0022 19.3 18.0081C19.3 17.014 18.4941 16.2081 17.5 16.2081C16.5059 16.2081 15.7 17.014 15.7 18.0081C15.7 19.0022 16.5059 19.8081 17.5 19.8081Z" fill="#EB1C25"/>
</symbol>
<symbol id="geo-fill" viewBox="0 0 24 25">
<ellipse cx="12" cy="18.2373" rx="6" ry="3" stroke="#EB1C25" stroke-width="2"/>
<path d="M12 11.2373V18.2373" stroke="#EB1C25" stroke-width="2"/>
<path fill-rule="evenodd" clip-rule="evenodd" d="M12 12.2373C14.7614 12.2373 17 9.99873 17 7.2373C17 4.47588 14.7614 2.2373 12 2.2373C9.23858 2.2373 7 4.47588 7 7.2373C7 9.99873 9.23858 12.2373 12 12.2373ZM12 8.2373C12.5523 8.2373 13 7.78959 13 7.2373C13 6.68502 12.5523 6.2373 12 6.2373C11.4477 6.2373 11 6.68502 11 7.2373C11 7.78959 11.4477 8.2373 12 8.2373Z" fill="#EB1C25"/>
</symbol>
<symbol id="logo-white" viewBox="0 0 161 21">
<path d="M0 20.8645V11.0721V1.27979H3.10851H6.21703L6.55903 1.5981C6.97898 1.98903 10.7997 5.52869 13.6645 8.18081C18.7022 12.8446 18.2405 12.4459 18.3915 12.2639C18.4636 12.177 20.056 10.6875 21.4123 9.43838C21.7723 9.1068 22.2756 8.63759 22.5306 8.39581C22.9274 8.01955 25.0309 6.06424 26.4841 4.72075C26.725 4.49795 27.1193 4.12971 27.3603 3.90244C27.6013 3.67517 28.079 3.23144 28.4221 2.91639C28.7652 2.60134 29.2308 2.16857 29.457 1.95472C29.6831 1.74087 29.9453 1.50149 30.0396 1.42282L30.2112 1.27979H45.2737H60.3362V4.79849V8.31719H48.3617H36.3872V11.0721V13.8271H48.3617H60.3362V17.3458V20.8645H44.8157H29.2953V16.3911C29.2953 13.9308 29.2768 11.9181 29.2543 11.9186C29.2319 11.9191 29.1374 11.9866 29.0445 12.0686C28.838 12.251 25.3125 15.5282 24.6299 16.1724C24.3594 16.4277 23.8318 16.9189 23.4577 17.264C23.0836 17.609 22.4089 18.2347 21.9585 18.6543C21.508 19.0739 21.0045 19.5419 20.8395 19.6942C20.6744 19.8464 20.3264 20.1721 20.066 20.4178L19.5927 20.8645L18.184 20.8639L16.7752 20.8633L16.4206 20.5267C16.024 20.1504 14.1593 18.3699 9.98985 14.3863C8.44314 12.9085 7.15661 11.6995 7.13091 11.6995C7.10522 11.6995 7.08863 11.7548 7.09409 11.8223C7.09954 11.8897 7.10134 13.9519 7.09801 16.4048L7.09196 20.8645H3.54598H0Z" fill="#EB1C25"/>
<path d="M155.551 2.51817C154.795 2.2543 154.418 1.76653 154.31 0.911406L154.273 0.625H154.984H155.696V0.807866C155.696 1.04408 155.892 1.33589 156.133 1.45684C156.395 1.58858 156.844 1.581 157.12 1.44009C157.348 1.32378 157.547 1.00355 157.549 0.747745C157.55 0.6268 157.561 0.625 158.26 0.625H158.97L158.937 0.856853C158.812 1.74324 158.508 2.17814 157.804 2.47442C157.493 2.6054 157.408 2.61587 156.65 2.61604C156.003 2.61615 155.773 2.59569 155.551 2.51817Z" fill="white"/>
<path d="M67.4824 1.3402L67.7415 1.31974C67.8841 1.3085 68.0007 1.29487 68.0007 1.28947C68.0007 1.28406 67.9884 5.68004 67.9734 11.0584L67.9461 20.8371L67.7143 20.8538L67.4824 20.8706V11.1054V1.3402Z" fill="white"/>
<path d="M75.0654 10.3901V5.83355V1.27703L75.9694 1.29197L76.8734 1.30692L78.5411 4.07399C79.4583 5.59587 80.2266 6.83003 80.2483 6.81661C80.27 6.80319 81.0214 5.55201 81.9181 4.03618L83.5484 1.28019L84.4349 1.27992L85.3214 1.27964V3.86199C85.3214 5.28235 85.3377 7.3322 85.3576 8.41721L85.3937 10.3901H84.3756C83.8157 10.3901 83.3519 10.384 83.3452 10.3764C83.3384 10.3689 83.32 9.17878 83.3043 7.73164L83.2757 5.10041L81.9937 7.25451L80.7117 9.40861L80.2003 9.3947L79.6889 9.38084L78.4 7.27017L77.1111 5.15949L77.0969 7.77479L77.0828 10.3901H76.0741H75.0654Z" fill="white"/>
<path d="M120.583 5.88942C121.008 4.48074 122.228 3.48901 123.771 3.29785C124.929 3.15448 126.128 3.47264 126.842 4.11255C127.153 4.39132 127.522 4.94035 127.477 5.05666C127.462 5.09463 127.111 5.30744 126.698 5.52958L125.946 5.93355L125.843 5.80235C125.385 5.21978 125.073 5.03609 124.482 5.0008C123.711 4.95475 123.091 5.29184 122.76 5.93808C122.588 6.2726 122.527 7.00738 122.633 7.47785C122.773 8.10658 123.344 8.63177 124.022 8.75713C124.746 8.89101 125.419 8.59391 125.855 7.94767L125.937 7.82639L126.714 8.24902C127.141 8.48148 127.491 8.70351 127.491 8.74246C127.491 8.8771 127.127 9.38237 126.85 9.63146C126.514 9.93303 125.946 10.2397 125.5 10.3592C125.32 10.4075 124.927 10.4616 124.627 10.4795C122.707 10.5937 121.117 9.58695 120.609 7.93518C120.444 7.40017 120.432 6.39224 120.583 5.88942Z" fill="white"/>
<path d="M95.2502 10.3901V6.87138V3.35268H96.2867H97.3232V4.71652V6.08035H97.837H98.3509L99.2964 4.71903L100.242 3.3577L101.319 3.35519C102.028 3.35355 102.397 3.37204 102.397 3.40925C102.397 3.44034 102.162 3.78464 101.876 4.17426C101.583 4.57304 101.372 4.90974 101.393 4.94444C101.415 4.97979 101.407 4.99114 101.375 4.97106C101.318 4.93593 100.051 6.62796 100.051 6.73898C100.051 6.77117 100.627 7.59967 101.33 8.58011L102.61 10.3628L101.398 10.378C100.262 10.3923 100.182 10.3868 100.105 10.2891C100.06 10.2318 99.6435 9.64194 99.1791 8.97824L98.3345 7.77151H97.8289H97.3232V9.0808V10.3901H96.2867H95.2502Z" fill="white"/>
<path d="M127.819 5.09839V4.22553V3.35268H131.201H134.583V4.22553V5.09839H133.41H132.237V7.74424V10.3901H131.201H130.164V7.74424V5.09839H128.992H127.819Z" fill="white"/>
<path d="M153.077 10.3901V6.87138V3.35268H154.113H155.149L155.163 5.39435L155.177 7.43601L156.841 5.3968L158.505 3.35759L159.446 3.35513L160.387 3.35268V6.87258V10.3925L159.364 10.3776L158.341 10.3628L158.33 8.37804C158.323 7.28643 158.31 6.38574 158.301 6.37652C158.288 6.36316 155.84 9.34141 155.177 10.178L155.014 10.3845L154.045 10.3872L153.077 10.3901Z" fill="white"/>
<path d="M135.728 18.4367C135.758 17.9567 135.783 17.5209 135.783 17.4684C135.783 17.3805 135.874 17.3729 136.929 17.3729H138.075V18.8732V20.3734H137.802H137.529V19.1459V17.9185H136.91H136.291L136.256 18.5332C136.175 19.9493 135.943 20.4279 135.338 20.4279C135.034 20.4279 134.987 20.3715 135.043 20.0729C135.074 19.9091 135.101 19.8824 135.232 19.8824C135.559 19.8824 135.654 19.6039 135.728 18.4367Z" fill="white"/>
<path d="M142.657 20.3734V18.8732V17.3729H144.048H145.439V18.8732V20.3734H145.139H144.839V19.1459V17.9185H144.048H143.257V19.1459V20.3734H142.957H142.657Z" fill="white"/>
<path d="M146.421 20.3734V18.8704V17.3675L146.728 17.3838L147.035 17.4002L147.587 18.3628C147.891 18.8922 148.154 19.3168 148.171 19.3064C148.189 19.2961 148.457 18.8567 148.769 18.3302L149.335 17.3729H149.597H149.858V18.8732V20.3734H149.614H149.37L149.355 19.335L149.34 18.2966L148.822 19.1699C148.129 20.3368 148.176 20.3362 147.5 19.1878L146.994 18.3294L146.979 19.3514L146.965 20.3734H146.693H146.421Z" fill="white"/>
<path d="M154.386 20.3734V18.8732V17.3729H154.659H154.932V18.0003V18.6277H155.75H156.568V18.0003V17.3729H156.868H157.168V18.8732V20.3734H156.868H156.568V19.7733V19.1732H155.75H154.932V19.7733V20.3734H154.659H154.386Z" fill="white"/>
<path d="M157.659 17.9185V17.6457V17.3729H159.023H160.387V17.6457V17.9185H159.869H159.351V19.1459V20.3734H159.051H158.751V19.1459V17.9185H158.205H157.659Z" fill="white"/>
<path fill-rule="evenodd" clip-rule="evenodd" d="M89.4533 3.29982C89.2205 3.32611 88.8277 3.40025 88.5805 3.46451C88.1158 3.58541 87.1217 4.03378 87.1217 4.12248C87.1217 4.18751 87.6891 5.31262 87.7882 5.44426C87.8604 5.54 87.8802 5.53564 88.2198 5.34896C89.1669 4.82841 90.482 4.79502 91.0316 5.27755C91.2587 5.47694 91.4285 5.81043 91.4302 6.06039L91.4314 6.23136L90.1631 6.25858C89.1945 6.27936 88.8109 6.30839 88.5401 6.38127C87.8002 6.5805 87.2911 6.95403 87.0273 7.491C86.8927 7.76513 86.8762 7.85858 86.8762 8.34531C86.8762 8.85189 86.8892 8.91818 87.0541 9.25319C87.1524 9.45302 87.3321 9.70517 87.4562 9.81722C87.7548 10.087 88.3753 10.3729 88.8129 10.4422C89.8804 10.6113 90.82 10.3893 91.3632 9.83948L91.5951 9.60479V9.99746V10.3901H92.5498H93.5045L93.5035 8.11247C93.5025 5.63471 93.4797 5.38654 93.1985 4.78946C93.0091 4.38723 92.4852 3.85692 92.0861 3.66342C91.4316 3.34608 90.3575 3.1978 89.4533 3.29982ZM89.0356 7.79672C89.1131 7.7192 89.2727 7.62155 89.3902 7.57965C89.5394 7.52652 89.8797 7.50284 90.5177 7.50114L91.4314 7.49875V7.85608C91.4314 8.2811 91.3535 8.45338 91.0397 8.72195C90.5052 9.17954 89.5603 9.20818 89.0941 8.78097C88.9067 8.60919 88.8947 8.57836 88.8947 8.26795C88.8947 7.98553 88.9152 7.91723 89.0356 7.79672Z" fill="white"/>
<path fill-rule="evenodd" clip-rule="evenodd" d="M107.17 3.29807C106.564 3.38285 106.066 3.60799 105.684 3.96989L105.506 4.13781V3.74525V3.35268H104.524H103.542V8.12611V12.8995H104.579H105.615V11.3129V9.72628L105.826 9.89348C106.373 10.3263 107.145 10.5387 107.961 10.4805C108.856 10.4165 109.562 10.1018 110.176 9.49219C111.619 8.05885 111.498 5.268 109.939 4.0334C109.194 3.4434 108.137 3.16289 107.17 3.29807ZM105.775 5.95838C105.976 5.54191 106.388 5.17684 106.815 5.03713C106.89 5.01258 107.161 4.99905 107.416 5.00712C107.808 5.01956 107.924 5.04629 108.169 5.17995C108.866 5.5597 109.211 6.36524 109.056 7.25375C108.868 8.33691 108.046 8.9305 106.99 8.74666C106.377 8.63979 105.869 8.17952 105.692 7.5695C105.564 7.12996 105.606 6.30817 105.775 5.95838Z" fill="white"/>
<path fill-rule="evenodd" clip-rule="evenodd" d="M115.261 3.29785C113.77 3.48241 112.641 4.36923 112.154 5.73803C111.994 6.18641 111.954 7.22336 112.077 7.74424C112.308 8.72964 113.019 9.62415 113.911 10.0523C114.497 10.3341 114.896 10.4381 115.544 10.4788C116.437 10.535 117.306 10.3449 117.99 9.94389C118.496 9.64707 119.041 9.05996 119.303 8.52921C119.609 7.9079 119.709 7.40655 119.672 6.68044C119.601 5.32037 118.93 4.28871 117.717 3.67569C117.09 3.35862 116.055 3.19944 115.261 3.29785ZM114.226 6.05608C114.453 5.55053 114.77 5.24536 115.255 5.06479C115.391 5.01422 115.622 4.9936 115.926 5.00478C116.317 5.01918 116.436 5.04705 116.685 5.18284C117.041 5.37639 117.354 5.75363 117.484 6.14511C117.595 6.47816 117.611 7.19532 117.516 7.53459C117.373 8.04204 116.867 8.5746 116.401 8.7064C116.275 8.74218 115.993 8.77006 115.775 8.76837C115.271 8.7645 114.888 8.58922 114.541 8.20358C114.207 7.83125 114.098 7.49422 114.102 6.8441C114.104 6.43124 114.13 6.27097 114.226 6.05608Z" fill="white"/>
<path fill-rule="evenodd" clip-rule="evenodd" d="M121.681 18.0685C121.608 19.4023 121.461 19.8824 121.126 19.8824C121.003 19.8824 120.999 19.8971 120.999 20.3461V20.8098H121.272H121.545V20.5916V20.3734H122.745H123.945V20.5916V20.8098H124.218H124.491V20.3461V19.8824H124.273H124.054V18.6277V17.3729H122.887H121.72L121.681 18.0685ZM122.178 18.7172C122.194 18.4129 122.218 18.1087 122.231 18.0412C122.255 17.9229 122.278 17.9185 122.855 17.9185H123.454V18.9004V19.8824H122.699H121.944L122.047 19.5765C122.108 19.3956 122.162 19.0444 122.178 18.7172Z" fill="white"/>
<path fill-rule="evenodd" clip-rule="evenodd" d="M125.715 17.5025C125.221 17.7327 124.873 18.2974 124.873 18.8695C124.873 19.5518 125.315 20.1679 125.934 20.3477C126.474 20.5046 127.122 20.4031 127.505 20.1016C127.691 19.9553 127.692 19.8999 127.513 19.7128L127.371 19.5646L127.12 19.7235C126.909 19.8577 126.814 19.8822 126.512 19.8815C125.982 19.8802 125.594 19.6258 125.497 19.2141L125.461 19.0641H126.675H127.888L127.858 18.7681C127.821 18.4143 127.65 18.0046 127.447 17.7889C127.059 17.3739 126.271 17.2437 125.715 17.5025ZM125.473 18.5704C125.473 18.3807 125.776 18.0217 126.018 17.9252C126.43 17.7609 126.89 17.9117 127.149 18.2961C127.372 18.6262 127.368 18.6277 126.373 18.6277C125.781 18.6277 125.473 18.6081 125.473 18.5704Z" fill="white"/>
<path fill-rule="evenodd" clip-rule="evenodd" d="M128.637 20.3734V18.8732V17.3729H129.473C130.396 17.3729 130.769 17.4451 130.974 17.6633C131.251 17.9588 131.23 18.4476 130.927 18.7019C130.777 18.8281 130.773 18.8413 130.871 18.8725C130.93 18.8911 131.043 18.9835 131.122 19.0779C131.252 19.2319 131.265 19.2847 131.245 19.5902C131.22 19.9805 131.131 20.1152 130.792 20.2708C130.606 20.3559 130.428 20.3711 129.605 20.3722L128.637 20.3734ZM129.237 18.2431V18.6222L129.551 18.6386C130.064 18.6653 130.387 18.6067 130.501 18.4666C130.642 18.2919 130.626 18.1098 130.457 17.977C130.334 17.88 130.237 17.8639 129.775 17.8639H129.237V18.2431ZM129.237 19.937V19.4927V19.0484L129.811 19.0777C130.437 19.1097 130.629 19.1844 130.688 19.4198C130.73 19.5886 130.593 19.8127 130.404 19.8849C130.328 19.9135 130.035 19.937 129.752 19.937H129.237Z" fill="white"/>
<path fill-rule="evenodd" clip-rule="evenodd" d="M132.74 17.4415C132.497 17.5195 132.096 17.8825 131.949 18.157C131.851 18.3408 131.829 18.4723 131.829 18.8732C131.828 19.3147 131.844 19.3933 131.989 19.6533C132.287 20.1925 132.861 20.4693 133.558 20.4108C133.815 20.3893 134.014 20.3338 134.203 20.2309C134.602 20.0138 134.623 19.9722 134.451 19.7461C134.313 19.566 134.201 19.5003 134.201 19.5996C134.201 19.6241 134.101 19.7003 133.979 19.769C133.791 19.8747 133.696 19.8909 133.36 19.8739C133.028 19.8571 132.931 19.8292 132.764 19.7017C132.562 19.5477 132.401 19.3026 132.401 19.1497C132.401 19.0778 132.565 19.0642 133.588 19.0516L134.774 19.0368L134.758 18.7383C134.712 17.9103 134.131 17.3681 133.301 17.3791C133.091 17.3818 132.839 17.4099 132.74 17.4415ZM132.401 18.5669C132.401 18.4232 132.647 18.0878 132.83 17.9816C133.257 17.7338 133.789 17.8677 134.077 18.2961C134.3 18.6262 134.296 18.6277 133.301 18.6277C132.676 18.6277 132.401 18.6091 132.401 18.5669Z" fill="white"/>
<path fill-rule="evenodd" clip-rule="evenodd" d="M139.682 17.502C139.349 17.6573 138.991 18.0481 138.898 18.36C138.667 19.1303 138.965 19.9071 139.623 20.2525C139.862 20.3779 139.969 20.3992 140.366 20.3999C140.881 20.4008 141.164 20.2953 141.494 19.9796C141.901 19.5909 142.041 18.7855 141.798 18.2373C141.651 17.9035 141.297 17.5667 140.982 17.4592C140.596 17.3277 140.015 17.3468 139.682 17.502ZM139.933 19.8025C139.225 19.4363 139.236 18.2927 139.951 17.9678C140.235 17.8392 140.497 17.839 140.779 17.9674C141.298 18.203 141.486 18.8325 141.211 19.4128C141.021 19.8127 140.349 20.0176 139.933 19.8025Z" fill="white"/>
<path fill-rule="evenodd" clip-rule="evenodd" d="M139.195 3.30134C138.575 3.39719 138.082 3.62599 137.734 3.97912L137.584 4.13132V3.74197V3.35268H136.602H135.62V8.12611V12.8995H136.656H137.693V11.3073V9.71504L137.843 9.85295C138.81 10.7424 140.789 10.6895 141.988 9.74209C143.631 8.44339 143.668 5.42828 142.057 4.08932C141.922 3.9771 141.797 3.8615 141.778 3.83253C141.76 3.80351 141.723 3.77743 141.696 3.7746C141.67 3.77176 141.476 3.69129 141.266 3.59577C141.056 3.5003 140.774 3.39594 140.639 3.36397C140.266 3.2757 139.559 3.24504 139.195 3.30134ZM137.662 6.62589C137.741 5.84801 138.204 5.2506 138.893 5.04029C138.968 5.01738 139.194 4.99654 139.396 4.99398C140.097 4.98498 140.665 5.33826 140.959 5.96639C141.088 6.23998 141.102 6.33567 141.102 6.89866C141.102 7.47567 141.09 7.55106 140.949 7.83774C140.649 8.44869 140.09 8.7771 139.357 8.77235C138.273 8.76537 137.541 7.83785 137.662 6.62589Z" fill="white"/>
<path fill-rule="evenodd" clip-rule="evenodd" d="M147.294 3.30238C145.726 3.50134 144.47 4.58068 144.126 6.0258C144.025 6.44963 144.04 7.39248 144.154 7.82607C144.482 9.06662 145.47 10.0234 146.776 10.3626C147.553 10.5645 148.581 10.5212 149.369 10.2533C151.128 9.65497 152.087 7.85416 151.649 5.97125C151.617 5.83623 151.493 5.51709 151.373 5.26205C151.194 4.88378 151.072 4.71788 150.71 4.3617C150.065 3.72577 149.407 3.4177 148.441 3.29992C147.927 3.23719 147.806 3.23746 147.294 3.30238ZM146.784 5.37569C146.924 5.25218 147.152 5.1153 147.289 5.07144C147.664 4.95197 148.349 4.9865 148.664 5.14078C149.264 5.43542 149.593 5.97932 149.63 6.74035C149.691 7.98826 149.005 8.77803 147.864 8.77296C146.907 8.76876 146.219 8.07516 146.159 7.05501C146.117 6.31433 146.311 5.79209 146.784 5.37569Z" fill="white"/>
<path fill-rule="evenodd" clip-rule="evenodd" d="M151.545 17.4477C151.215 17.5655 150.963 17.7999 150.787 18.1506C150.646 18.4332 150.622 18.5428 150.622 18.9029C150.622 19.2583 150.646 19.3701 150.774 19.6161C151.12 20.2786 151.941 20.5812 152.744 20.3426C152.904 20.2952 153.113 20.1802 153.216 20.0835L153.4 19.9097L153.243 19.7262L153.086 19.5427L152.884 19.6968C152.724 19.8187 152.611 19.8553 152.339 19.8726C152.151 19.8846 151.909 19.8654 151.801 19.8299C151.582 19.7575 151.247 19.4004 151.208 19.1974L151.183 19.0641H152.375H153.568V18.7982C153.568 18.2454 153.27 17.7515 152.792 17.5136C152.567 17.4013 152.433 17.3734 152.125 17.3753C151.914 17.3766 151.652 17.4092 151.545 17.4477ZM151.251 18.4251C151.357 18.1711 151.457 18.0602 151.676 17.9519C151.892 17.8453 152.259 17.84 152.499 17.94C152.688 18.0192 152.928 18.2937 152.992 18.5049L153.03 18.6277H152.098H151.166L151.251 18.4251Z" fill="white"/>
</symbol>
<symbol id="logo" viewBox="0 0 161 21">
<path d="M0 20.865V11.0726V1.28027H3.10851H6.21703L6.55903 1.59859C6.97898 1.98952 10.7997 5.52918 13.6645 8.1813C18.7022 12.8451 18.2405 12.4463 18.3915 12.2644C18.4636 12.1775 20.056 10.688 21.4123 9.43887C21.7723 9.10729 22.2756 8.63808 22.5306 8.39629C22.9274 8.02004 25.0309 6.06473 26.4841 4.72124C26.725 4.49844 27.1193 4.1302 27.3603 3.90293C27.6013 3.67566 28.079 3.23193 28.4221 2.91688C28.7652 2.60183 29.2308 2.16906 29.457 1.95521C29.6831 1.74136 29.9453 1.50198 30.0396 1.42331L30.2112 1.28027H45.2737H60.3362V4.79898V8.31768H48.3617H36.3872V11.0726V13.8276H48.3617H60.3362V17.3463V20.865H44.8157H29.2953V16.3916C29.2953 13.9312 29.2768 11.9186 29.2543 11.9191C29.2319 11.9196 29.1374 11.9871 29.0445 12.0691C28.838 12.2515 25.3125 15.5287 24.6299 16.1728C24.3594 16.4282 23.8318 16.9194 23.4577 17.2645C23.0836 17.6095 22.4089 18.2352 21.9585 18.6548C21.508 19.0744 21.0045 19.5424 20.8395 19.6947C20.6744 19.8469 20.3264 20.1726 20.066 20.4183L19.5927 20.865L18.184 20.8643L16.7752 20.8637L16.4206 20.5272C16.024 20.1509 14.1593 18.3704 9.98985 14.3868C8.44314 12.909 7.15661 11.7 7.13091 11.7C7.10522 11.7 7.08863 11.7553 7.09409 11.8227C7.09954 11.8902 7.10134 13.9524 7.09801 16.4052L7.09196 20.865H3.54598H0Z" fill="#EB1C25"/>
<path d="M155.551 2.51866C154.795 2.25478 154.418 1.76702 154.31 0.911894L154.273 0.625488H154.984H155.696V0.808355C155.696 1.04457 155.892 1.33638 156.133 1.45732C156.395 1.58907 156.844 1.58149 157.12 1.44058C157.348 1.32427 157.547 1.00404 157.549 0.748234C157.55 0.627289 157.561 0.625488 158.26 0.625488H158.97L158.937 0.857341C158.812 1.74373 158.508 2.17863 157.804 2.47491C157.493 2.60589 157.408 2.61636 156.65 2.61653C156.003 2.61664 155.773 2.59618 155.551 2.51866Z" fill="#272968"/>
<path d="M67.4824 1.34068L67.7415 1.32023C67.8841 1.30899 68.0007 1.29535 68.0007 1.28995C68.0007 1.28455 67.9884 5.68053 67.9734 11.0589L67.9461 20.8376L67.7143 20.8543L67.4824 20.8711V11.1059V1.34068Z" fill="#272968"/>
<path d="M75.0654 10.3906V5.83404V1.27751L75.9694 1.29246L76.8734 1.30741L78.5411 4.07448C79.4583 5.59636 80.2266 6.83052 80.2483 6.8171C80.27 6.80368 81.0214 5.55249 81.9181 4.03667L83.5484 1.28068L84.4349 1.2804L85.3214 1.28013V3.86248C85.3214 5.28284 85.3377 7.33269 85.3576 8.4177L85.3937 10.3906H84.3756C83.8157 10.3906 83.3519 10.3845 83.3452 10.3769C83.3384 10.3694 83.32 9.17927 83.3043 7.73213L83.2757 5.1009L81.9937 7.255L80.7117 9.4091L80.2003 9.39519L79.6889 9.38133L78.4 7.27066L77.1111 5.15998L77.0969 7.77528L77.0828 10.3906H76.0741H75.0654Z" fill="#272968"/>
<path d="M120.583 5.88991C121.008 4.48122 122.228 3.48949 123.771 3.29834C124.929 3.15497 126.128 3.47313 126.842 4.11304C127.153 4.39181 127.522 4.94084 127.477 5.05715C127.462 5.09511 127.111 5.30793 126.698 5.53007L125.946 5.93404L125.843 5.80284C125.385 5.22026 125.073 5.03658 124.482 5.00129C123.711 4.95524 123.091 5.29232 122.76 5.93857C122.588 6.27309 122.527 7.00787 122.633 7.47834C122.773 8.10707 123.344 8.63226 124.022 8.75762C124.746 8.8915 125.419 8.5944 125.855 7.94816L125.937 7.82688L126.714 8.24951C127.141 8.48197 127.491 8.70399 127.491 8.74295C127.491 8.87758 127.127 9.38286 126.85 9.63195C126.514 9.93352 125.946 10.2402 125.5 10.3597C125.32 10.408 124.927 10.4621 124.627 10.48C122.707 10.5942 121.117 9.58744 120.609 7.93566C120.444 7.40066 120.432 6.39273 120.583 5.88991Z" fill="#272968"/>
<path d="M95.2502 10.3906V6.87187V3.35317H96.2867H97.3232V4.717V6.08084H97.837H98.3509L99.2964 4.71951L100.242 3.35819L101.319 3.35568C102.028 3.35404 102.397 3.37253 102.397 3.40974C102.397 3.44083 102.162 3.78512 101.876 4.17475C101.583 4.57353 101.372 4.91023 101.393 4.94493C101.415 4.98028 101.407 4.99163 101.375 4.97155C101.318 4.93642 100.051 6.62845 100.051 6.73947C100.051 6.77165 100.627 7.60016 101.33 8.5806L102.61 10.3633L101.398 10.3785C100.262 10.3928 100.182 10.3873 100.105 10.2896C100.06 10.2323 99.6435 9.64243 99.1791 8.97873L98.3345 7.772H97.8289H97.3232V9.08129V10.3906H96.2867H95.2502Z" fill="#272968"/>
<path d="M127.819 5.09888V4.22602V3.35317H131.201H134.583V4.22602V5.09888H133.41H132.237V7.74473V10.3906H131.201H130.164V7.74473V5.09888H128.992H127.819Z" fill="#272968"/>
<path d="M153.077 10.3906V6.87187V3.35317H154.113H155.149L155.163 5.39483L155.177 7.4365L156.841 5.39729L158.505 3.35807L159.446 3.35562L160.387 3.35317V6.87307V10.393L159.364 10.3781L158.341 10.3633L158.33 8.37853C158.323 7.28692 158.31 6.38623 158.301 6.37701C158.288 6.36365 155.84 9.34189 155.177 10.1785L155.014 10.385L154.045 10.3877L153.077 10.3906Z" fill="#272968"/>
<path d="M135.728 18.4372C135.758 17.9571 135.783 17.5214 135.783 17.4689C135.783 17.381 135.874 17.3734 136.929 17.3734H138.075V18.8736V20.3739H137.802H137.529V19.1464V17.919H136.91H136.291L136.256 18.5337C136.175 19.9498 135.943 20.4284 135.338 20.4284C135.034 20.4284 134.987 20.372 135.043 20.0734C135.074 19.9096 135.101 19.8829 135.232 19.8829C135.559 19.8829 135.654 19.6043 135.728 18.4372Z" fill="#272968"/>
<path d="M142.657 20.3739V18.8736V17.3734H144.048H145.439V18.8736V20.3739H145.139H144.839V19.1464V17.919H144.048H143.257V19.1464V20.3739H142.957H142.657Z" fill="#272968"/>
<path d="M146.421 20.3739V18.8709V17.368L146.728 17.3843L147.035 17.4007L147.587 18.3633C147.891 18.8927 148.154 19.3173 148.171 19.3069C148.189 19.2966 148.457 18.8572 148.769 18.3307L149.335 17.3734H149.597H149.858V18.8736V20.3739H149.614H149.37L149.355 19.3355L149.34 18.2971L148.822 19.1704C148.129 20.3373 148.176 20.3367 147.5 19.1883L146.994 18.3299L146.979 19.3519L146.965 20.3739H146.693H146.421Z" fill="#272968"/>
<path d="M154.386 20.3739V18.8736V17.3734H154.659H154.932V18.0008V18.6282H155.75H156.568V18.0008V17.3734H156.868H157.168V18.8736V20.3739H156.868H156.568V19.7738V19.1737H155.75H154.932V19.7738V20.3739H154.659H154.386Z" fill="#272968"/>
<path d="M157.659 17.919V17.6462V17.3734H159.023H160.387V17.6462V17.919H159.869H159.351V19.1464V20.3739H159.051H158.751V19.1464V17.919H158.205H157.659Z" fill="#272968"/>
<path fill-rule="evenodd" clip-rule="evenodd" d="M89.4533 3.3003C89.2205 3.3266 88.8277 3.40074 88.5805 3.465C88.1158 3.58589 87.1217 4.03426 87.1217 4.12297C87.1217 4.188 87.6891 5.31311 87.7882 5.44475C87.8604 5.54049 87.8802 5.53613 88.2198 5.34944C89.1669 4.82889 90.482 4.79551 91.0316 5.27804C91.2587 5.47743 91.4285 5.81091 91.4302 6.06088L91.4314 6.23184L90.1631 6.25907C89.1945 6.27985 88.8109 6.30888 88.5401 6.38176C87.8002 6.58099 87.2911 6.95452 87.0273 7.49149C86.8927 7.76562 86.8762 7.85907 86.8762 8.34579C86.8762 8.85238 86.8892 8.91867 87.0541 9.25368C87.1524 9.45351 87.3321 9.70565 87.4562 9.81771C87.7548 10.0875 88.3753 10.3734 88.8129 10.4427C89.8804 10.6118 90.82 10.3898 91.3632 9.83996L91.5951 9.60527V9.99795V10.3906H92.5498H93.5045L93.5035 8.11296C93.5025 5.6352 93.4797 5.38703 93.1985 4.78994C93.0091 4.38772 92.4852 3.85741 92.0861 3.66391C91.4316 3.34657 90.3575 3.19829 89.4533 3.3003ZM89.0356 7.79721C89.1131 7.71969 89.2727 7.62204 89.3902 7.58014C89.5394 7.527 89.8797 7.50332 90.5177 7.50163L91.4314 7.49924V7.85656C91.4314 8.28159 91.3535 8.45387 91.0397 8.72243C90.5052 9.18003 89.5603 9.20867 89.0941 8.78146C88.9067 8.60967 88.8947 8.57885 88.8947 8.26844C88.8947 7.98602 88.9152 7.91772 89.0356 7.79721Z" fill="#272968"/>
<path fill-rule="evenodd" clip-rule="evenodd" d="M107.17 3.29856C106.564 3.38333 106.066 3.60847 105.684 3.97038L105.506 4.1383V3.74574V3.35317H104.524H103.542V8.1266V12.9H104.579H105.615V11.3134V9.72677L105.826 9.89397C106.373 10.3268 107.145 10.5392 107.961 10.481C108.856 10.417 109.562 10.1023 110.176 9.49268C111.619 8.05934 111.498 5.26849 109.939 4.03389C109.194 3.44389 108.137 3.16338 107.17 3.29856ZM105.775 5.95886C105.976 5.5424 106.388 5.17732 106.815 5.03761C106.89 5.01306 107.161 4.99954 107.416 5.00761C107.808 5.02005 107.924 5.04678 108.169 5.18044C108.866 5.56018 109.211 6.36572 109.056 7.25424C108.868 8.3374 108.046 8.93099 106.99 8.74715C106.377 8.64028 105.869 8.18001 105.692 7.56999C105.564 7.13045 105.606 6.30866 105.775 5.95886Z" fill="#272968"/>
<path fill-rule="evenodd" clip-rule="evenodd" d="M115.261 3.29834C113.77 3.48289 112.641 4.36971 112.154 5.73852C111.994 6.18689 111.954 7.22385 112.077 7.74473C112.308 8.73013 113.019 9.62464 113.911 10.0528C114.497 10.3345 114.896 10.4386 115.544 10.4793C116.437 10.5355 117.306 10.3454 117.99 9.94438C118.496 9.64756 119.041 9.06045 119.303 8.5297C119.609 7.90839 119.709 7.40704 119.672 6.68093C119.601 5.32086 118.93 4.2892 117.717 3.67618C117.09 3.35911 116.055 3.19992 115.261 3.29834ZM114.226 6.05657C114.453 5.55102 114.77 5.24585 115.255 5.06528C115.391 5.01471 115.622 4.99408 115.926 5.00527C116.317 5.01967 116.436 5.04754 116.685 5.18333C117.041 5.37688 117.354 5.75412 117.484 6.1456C117.595 6.47865 117.611 7.19581 117.516 7.53508C117.373 8.04253 116.867 8.57508 116.401 8.70689C116.275 8.74267 115.993 8.77055 115.775 8.76886C115.271 8.76498 114.888 8.58971 114.541 8.20407C114.207 7.83174 114.098 7.49471 114.102 6.84459C114.104 6.43173 114.13 6.27146 114.226 6.05657Z" fill="#272968"/>
<path fill-rule="evenodd" clip-rule="evenodd" d="M121.681 18.069C121.608 19.4028 121.461 19.8829 121.126 19.8829C121.003 19.8829 120.999 19.8976 120.999 20.3466V20.8103H121.272H121.545V20.5921V20.3739H122.745H123.945V20.5921V20.8103H124.218H124.491V20.3466V19.8829H124.273H124.054V18.6282V17.3734H122.887H121.72L121.681 18.069ZM122.178 18.7177C122.194 18.4134 122.218 18.1092 122.231 18.0417C122.255 17.9234 122.278 17.919 122.855 17.919H123.454V18.9009V19.8829H122.699H121.944L122.047 19.577C122.108 19.3961 122.162 19.0449 122.178 18.7177Z" fill="#272968"/>
<path fill-rule="evenodd" clip-rule="evenodd" d="M125.715 17.5029C125.221 17.7332 124.873 18.2979 124.873 18.87C124.873 19.5523 125.315 20.1684 125.934 20.3482C126.474 20.5051 127.122 20.4036 127.505 20.1021C127.691 19.9558 127.692 19.9003 127.513 19.7133L127.371 19.5651L127.12 19.724C126.909 19.8582 126.814 19.8827 126.512 19.882C125.982 19.8807 125.594 19.6263 125.497 19.2146L125.461 19.0646H126.675H127.888L127.858 18.7686C127.821 18.4147 127.65 18.0051 127.447 17.7893C127.059 17.3744 126.271 17.2442 125.715 17.5029ZM125.473 18.5709C125.473 18.3812 125.776 18.0222 126.018 17.9257C126.43 17.7614 126.89 17.9122 127.149 18.2966C127.372 18.6267 127.368 18.6282 126.373 18.6282C125.781 18.6282 125.473 18.6086 125.473 18.5709Z" fill="#272968"/>
<path fill-rule="evenodd" clip-rule="evenodd" d="M128.637 20.3739V18.8736V17.3734H129.473C130.396 17.3734 130.769 17.4456 130.974 17.6638C131.251 17.9593 131.23 18.4481 130.927 18.7024C130.777 18.8286 130.773 18.8417 130.871 18.8729C130.93 18.8915 131.043 18.984 131.122 19.0784C131.252 19.2324 131.265 19.2852 131.245 19.5906C131.22 19.981 131.131 20.1157 130.792 20.2713C130.606 20.3564 130.428 20.3716 129.605 20.3727L128.637 20.3739ZM129.237 18.2436V18.6227L129.551 18.6391C130.064 18.6658 130.387 18.6072 130.501 18.4671C130.642 18.2924 130.626 18.1103 130.457 17.9775C130.334 17.8804 130.237 17.8644 129.775 17.8644H129.237V18.2436ZM129.237 19.9374V19.4932V19.0489L129.811 19.0782C130.437 19.1101 130.629 19.1849 130.688 19.4203C130.73 19.5891 130.593 19.8132 130.404 19.8853C130.328 19.914 130.035 19.9374 129.752 19.9374H129.237Z" fill="#272968"/>
<path fill-rule="evenodd" clip-rule="evenodd" d="M132.74 17.442C132.497 17.52 132.096 17.883 131.949 18.1575C131.851 18.3413 131.829 18.4728 131.829 18.8736C131.828 19.3152 131.844 19.3938 131.989 19.6538C132.287 20.193 132.861 20.4698 133.558 20.4113C133.815 20.3897 134.014 20.3343 134.203 20.2314C134.602 20.0143 134.623 19.9727 134.451 19.7466C134.313 19.5665 134.201 19.5007 134.201 19.6001C134.201 19.6246 134.101 19.7008 133.979 19.7695C133.791 19.8751 133.696 19.8913 133.36 19.8744C133.028 19.8576 132.931 19.8296 132.764 19.7022C132.562 19.5482 132.401 19.3031 132.401 19.1502C132.401 19.0783 132.565 19.0647 133.588 19.052L134.774 19.0373L134.758 18.7388C134.712 17.9108 134.131 17.3686 133.301 17.3795C133.091 17.3823 132.839 17.4104 132.74 17.442ZM132.401 18.5674C132.401 18.4237 132.647 18.0882 132.83 17.9821C133.257 17.7342 133.789 17.8682 134.077 18.2966C134.3 18.6267 134.296 18.6282 133.301 18.6282C132.676 18.6282 132.401 18.6096 132.401 18.5674Z" fill="#272968"/>
<path fill-rule="evenodd" clip-rule="evenodd" d="M139.682 17.5025C139.349 17.6578 138.991 18.0486 138.898 18.3605C138.667 19.1308 138.965 19.9076 139.623 20.253C139.862 20.3784 139.969 20.3997 140.366 20.4004C140.881 20.4013 141.164 20.2958 141.494 19.9801C141.901 19.5914 142.041 18.786 141.798 18.2378C141.651 17.904 141.297 17.5671 140.982 17.4597C140.596 17.3282 140.015 17.3473 139.682 17.5025ZM139.933 19.803C139.225 19.4368 139.236 18.2931 139.951 17.9683C140.235 17.8396 140.497 17.8395 140.779 17.9678C141.298 18.2035 141.486 18.833 141.211 19.4133C141.021 19.8132 140.349 20.0181 139.933 19.803Z" fill="#272968"/>
<path fill-rule="evenodd" clip-rule="evenodd" d="M139.195 3.30183C138.575 3.39768 138.082 3.62648 137.734 3.97961L137.584 4.13181V3.74246V3.35317H136.602H135.62V8.1266V12.9H136.656H137.693V11.3078V9.71553L137.843 9.85344C138.81 10.7429 140.789 10.69 141.988 9.74258C143.631 8.44388 143.668 5.42877 142.057 4.08981C141.922 3.97759 141.797 3.86199 141.778 3.83302C141.76 3.804 141.723 3.77792 141.696 3.77508C141.67 3.77225 141.476 3.69178 141.266 3.59626C141.056 3.50079 140.774 3.39643 140.639 3.36446C140.266 3.27619 139.559 3.24553 139.195 3.30183ZM137.662 6.62638C137.741 5.8485 138.204 5.25109 138.893 5.04078C138.968 5.01787 139.194 4.99703 139.396 4.99447C140.097 4.98547 140.665 5.33875 140.959 5.96688C141.088 6.24047 141.102 6.33615 141.102 6.89915C141.102 7.47616 141.09 7.55155 140.949 7.83823C140.649 8.44918 140.09 8.77759 139.357 8.77284C138.273 8.76586 137.541 7.83834 137.662 6.62638Z" fill="#272968"/>
<path fill-rule="evenodd" clip-rule="evenodd" d="M147.294 3.30287C145.726 3.50182 144.47 4.58117 144.126 6.02629C144.025 6.45012 144.04 7.39297 144.154 7.82656C144.482 9.0671 145.47 10.0239 146.776 10.3631C147.553 10.565 148.581 10.5217 149.369 10.2537C151.128 9.65546 152.087 7.85465 151.649 5.97174C151.617 5.83672 151.493 5.51758 151.373 5.26254C151.194 4.88427 151.072 4.71837 150.71 4.36219C150.065 3.72626 149.407 3.41819 148.441 3.30041C147.927 3.23767 147.806 3.23795 147.294 3.30287ZM146.784 5.37618C146.924 5.25267 147.152 5.11579 147.289 5.07193C147.664 4.95246 148.349 4.98699 148.664 5.14127C149.264 5.43591 149.593 5.97981 149.63 6.74083C149.691 7.98875 149.005 8.77852 147.864 8.77345C146.907 8.76925 146.219 8.07565 146.159 7.05549C146.117 6.31482 146.311 5.79258 146.784 5.37618Z" fill="#272968"/>
<path fill-rule="evenodd" clip-rule="evenodd" d="M151.545 17.4482C151.215 17.5659 150.963 17.8004 150.787 18.1511C150.646 18.4337 150.622 18.5433 150.622 18.9034C150.622 19.2588 150.646 19.3706 150.774 19.6166C151.12 20.2791 151.941 20.5817 152.744 20.3431C152.904 20.2957 153.113 20.1806 153.216 20.084L153.4 19.9102L153.243 19.7266L153.086 19.5432L152.884 19.6972C152.724 19.8192 152.611 19.8558 152.339 19.8731C152.151 19.8851 151.909 19.8659 151.801 19.8304C151.582 19.758 151.247 19.4009 151.208 19.1979L151.183 19.0646H152.375H153.568V18.7987C153.568 18.2458 153.27 17.752 152.792 17.5141C152.567 17.4017 152.433 17.3739 152.125 17.3758C151.914 17.3771 151.652 17.4097 151.545 17.4482ZM151.251 18.4256C151.357 18.1715 151.457 18.0606 151.676 17.9524C151.892 17.8458 152.259 17.8405 152.499 17.9405C152.688 18.0197 152.928 18.2942 152.992 18.5054L153.03 18.6282H152.098H151.166L151.251 18.4256Z" fill="#272968"/>
</symbol>
</svg>